<svg xmlns="http://www.w3.org/2000/svg" width="120" height="120.001" viewBox="0 0 120 120.001">
            <g id="startup" transform="translate(-0.001 0)">
            <g id="Groupe_61" data-name="Groupe 61" transform="translate(58.967 56.348)">
                <g id="Groupe_60" data-name="Groupe 60">
                <path id="Tracé_106" data-name="Tracé 106" d="M255.589,241.106a2.344,2.344,0,1,0,0,3.314A2.344,2.344,0,0,0,255.589,241.106Z" transform="translate(-251.587 -240.418)" fill="#f0f0f0"/>
                </g>
            </g>
            <g id="Groupe_63" data-name="Groupe 63" transform="translate(72.799 23.769)">
                <g id="Groupe_62" data-name="Groupe 62">
                <path id="Tracé_107" data-name="Tracé 107" d="M330.6,104.85a11.719,11.719,0,1,0,0,16.573A11.714,11.714,0,0,0,330.6,104.85Zm-3.315,13.258a7.031,7.031,0,1,1,0-9.944A7.041,7.041,0,0,1,327.288,118.108Z" transform="translate(-310.603 -101.415)" fill="#f0f0f0"/>
                </g>
            </g>
            <g id="Groupe_65" data-name="Groupe 65" transform="translate(22.505 0)">
                <g id="Groupe_64" data-name="Groupe 64" transform="translate(0 0)">
                <path id="Tracé_108" data-name="Tracé 108" d="M192.827.686A2.336,2.336,0,0,0,191.086,0,104.119,104.119,0,0,0,162.94,5.829c-12.019,4.244-22.037,10.319-29.776,18.058-1.734,1.734-3.422,3.573-5.036,5.483-7.652-4.5-13.784-3.092-17.66-1.017-8.925,4.777-14.45,17.746-14.45,27.023a2.344,2.344,0,0,0,4,1.657,14.921,14.921,0,0,1,12.409-4.163l.821.821a82.438,82.438,0,0,0-3.871,11.383,6.634,6.634,0,0,0,.284,4.071,22.2,22.2,0,0,0-6.329,4.463c-6.033,6.033-7.258,20.737-7.307,21.36A2.343,2.343,0,0,0,98.362,97.5q.092,0,.185-.007c.623-.049,15.327-1.274,21.36-7.307a22.2,22.2,0,0,0,4.462-6.328,6.619,6.619,0,0,0,4.073.282,82.448,82.448,0,0,0,11.382-3.87l.821.821a14.921,14.921,0,0,1-4.163,12.409,2.344,2.344,0,0,0,1.657,4c9.277,0,22.246-5.524,27.022-14.45,2.074-3.876,3.487-10.008-1.017-17.66,1.909-1.614,3.749-3.3,5.483-5.036,7.739-7.739,13.815-17.757,18.058-29.775a104.117,104.117,0,0,0,5.828-28.147A2.344,2.344,0,0,0,192.827.686ZM101.258,50.335c1.456-7.046,5.685-14.778,11.422-17.849,3.834-2.052,8.025-1.851,12.481.589a94.766,94.766,0,0,0-9.847,16.052,2.471,2.471,0,0,0-1.241-.729A20.032,20.032,0,0,0,101.258,50.335Zm15.334,36.532c-3.223,3.223-10.782,4.922-15.561,5.616.694-4.778,2.394-12.338,5.617-15.56a16.89,16.89,0,0,1,6-3.944l7.887,7.887A16.887,16.887,0,0,1,116.592,86.867Zm10.685-7.272a2.2,2.2,0,0,1-2.048-.664l-4.59-4.59-6.053-6.053a2.2,2.2,0,0,1-.666-2.048,76.1,76.1,0,0,1,2.926-8.952l19.382,19.382A76.053,76.053,0,0,1,127.277,79.595Zm33.751,1.239c-3.071,5.737-10.8,9.966-17.848,11.422A19.948,19.948,0,0,0,145.1,79.384a2.448,2.448,0,0,0-.713-1.184,94.8,94.8,0,0,0,16.051-9.847C162.879,72.809,163.08,77,161.028,80.834Zm5.284-23.8a85.073,85.073,0,0,1-6.759,6.064,90.047,90.047,0,0,1-18.684,11.582L118.833,52.646a90.032,90.032,0,0,1,11.582-18.684,85.055,85.055,0,0,1,6.064-6.76c6.943-6.944,15.9-12.47,26.642-16.448L182.76,30.393C178.783,41.13,173.257,50.091,166.313,57.035ZM184.446,25.45,168.064,9.068A105.372,105.372,0,0,1,188.63,4.885,105.39,105.39,0,0,1,184.446,25.45Z" transform="translate(-96.018 0)" fill="#f0f0f0"/>
                </g>
            </g>
            <g id="Groupe_67" data-name="Groupe 67" transform="translate(45.709 96.122)">
                <g id="Groupe_66" data-name="Groupe 66">
                <path id="Tracé_109" data-name="Tracé 109" d="M205.65,410.807a2.344,2.344,0,0,0-3.315,0l-6.628,6.63a2.344,2.344,0,0,0,3.315,3.314l6.628-6.63A2.344,2.344,0,0,0,205.65,410.807Z" transform="translate(-195.021 -410.121)" fill="#f0f0f0"/>
                </g>
            </g>
            <g id="Groupe_69" data-name="Groupe 69" transform="translate(12.562 62.977)">
                <g id="Groupe_68" data-name="Groupe 68">
                <path id="Tracé_110" data-name="Tracé 110" d="M64.224,269.388a2.344,2.344,0,0,0-3.315,0l-6.63,6.628a2.344,2.344,0,1,0,3.314,3.315l6.631-6.628A2.344,2.344,0,0,0,64.224,269.388Z" transform="translate(-53.592 -268.701)" fill="#f0f0f0"/>
                </g>
            </g>
            <g id="Groupe_71" data-name="Groupe 71" transform="translate(19.888 99.439)">
                <g id="Groupe_70" data-name="Groupe 70">
                <path id="Tracé_111" data-name="Tracé 111" d="M104.729,424.958a2.344,2.344,0,0,0-3.315,0L85.538,440.832a2.344,2.344,0,0,0,3.314,3.315l15.877-15.874A2.344,2.344,0,0,0,104.729,424.958Z" transform="translate(-84.851 -424.271)" fill="#f0f0f0"/>
                </g>
            </g>
            <g id="Groupe_73" data-name="Groupe 73" transform="translate(1.138 99.439)">
                <g id="Groupe_72" data-name="Groupe 72">
                <path id="Tracé_112" data-name="Tracé 112" d="M24.729,424.958a2.344,2.344,0,0,0-3.315,0L5.538,440.832a2.344,2.344,0,0,0,3.314,3.315l15.877-15.874A2.344,2.344,0,0,0,24.729,424.958Z" transform="translate(-4.851 -424.271)" fill="#f0f0f0"/>
                </g>
            </g>
            <g id="Groupe_75" data-name="Groupe 75" transform="translate(0.001 79.55)">
                <g id="Groupe_74" data-name="Groupe 74" transform="translate(0)">
                <path id="Tracé_113" data-name="Tracé 113" d="M19.877,340.1a2.344,2.344,0,0,0-3.315,0L.688,355.973A2.344,2.344,0,1,0,4,359.288l15.874-15.877A2.344,2.344,0,0,0,19.877,340.1Z" transform="translate(-0.001 -339.41)" fill="#f0f0f0"/>
                </g>
            </g>
            <g id="Groupe_77" data-name="Groupe 77" transform="translate(65.596 46.404)">
                <g id="Groupe_76" data-name="Groupe 76">
                <path id="Tracé_114" data-name="Tracé 114" d="M287.187,198.677a2.344,2.344,0,0,0-3.315,0l-3.314,3.314a2.344,2.344,0,0,0,3.315,3.315l3.314-3.314A2.344,2.344,0,0,0,287.187,198.677Z" transform="translate(-279.871 -197.99)" fill="#f0f0f0"/>
                </g>
            </g>
            </g>
        </svg>